<svg width="944" height="341" viewBox="0 0 944 341" fill="none" xmlns="http://www.w3.org/2000/svg">
<path fill-rule="evenodd" clip-rule="evenodd" d="M0.863313 44.2465L1.64398 44.2465C2.60031 17.2281 21.7783 1.63361 46.2945 1.6336L67.1076 1.6333L67.1076 0.871823C67.0969 0.652097 67.1735 0.43707 67.3207 0.27374C67.4679 0.110349 67.6737 0.0119599 67.8932 5.80674e-05L99.8676 5.66698e-05C100.087 0.0120806 100.293 0.110469 100.44 0.273799C100.587 0.437129 100.664 0.652156 100.653 0.871822L100.653 1.63281L107.436 1.63269L107.436 0.871821C107.425 0.652095 107.501 0.437068 107.649 0.273738C107.796 0.110347 108.002 0.0119582 108.221 5.63047e-05L140.195 5.4907e-05C140.415 0.0120788 140.621 0.110467 140.768 0.273798C140.915 0.437128 140.991 0.652154 140.981 0.87182L140.981 1.6322L899.313 1.62069C924.468 1.62069 944 18.0366 944 46.361L944 677.244C944 705.571 924.468 721.986 899.313 721.986L46.2946 722C21.1405 722 1.60627 705.585 1.60659 677.258L1.60657 84.6019L0.863315 84.6019C0.64553 84.6119 0.432605 84.5354 0.270905 84.389C0.109204 84.2427 0.0118252 84.0384 -2.78957e-05 83.8206L-2.95914e-05 45.0279C0.0118234 44.81 0.109203 44.6057 0.270903 44.4594C0.432603 44.313 0.645528 44.2365 0.863313 44.2465Z" fill="white" fill-opacity="0.25"/>
<rect x="21" y="21" width="902" height="672" rx="20.7758" fill="#212020"/>
<rect x="21" y="21" width="902" height="672" rx="20.7758" fill="url(#paint0_linear_142_159)" fill-opacity="0.3"/>
<defs>
<linearGradient id="paint0_linear_142_159" x1="472" y1="21" x2="472" y2="693" gradientUnits="userSpaceOnUse">
<stop stop-color="#B5B2B2"/>
<stop offset="1" stop-color="#818181" stop-opacity="0"/>
</linearGradient>
</defs>
</svg>
